<svg width="48" height="48" viewBox="0 0 48 48" fill="none" xmlns="http://www.w3.org/2000/svg">
<path d="M34.125 21.4219V32.25M30.3 11.2125C30.3 9.16214 32.0125 7.5 34.125 7.5C36.2375 7.5 37.95 9.16214 37.95 11.2125C37.95 12.131 37.6063 13.0338 37.0369 13.7505C39.0934 14.7771 40.5 16.8573 40.5 19.2562C40.5 22.6735 37.6458 25.4437 34.125 25.4437C30.6042 25.4437 27.75 22.6735 27.75 19.2562C27.75 16.8573 29.1566 14.7771 31.2131 13.7505C30.6437 13.0338 30.3 12.131 30.3 11.2125Z" stroke="#073A38" stroke-width="2" stroke-linecap="round" stroke-linejoin="round"/>
<path d="M34.125 21.4219V32.25M30.3 11.2125C30.3 9.16214 32.0125 7.5 34.125 7.5C36.2375 7.5 37.95 9.16214 37.95 11.2125C37.95 12.131 37.6063 13.0338 37.0369 13.7505C39.0934 14.7771 40.5 16.8573 40.5 19.2562C40.5 22.6735 37.6458 25.4437 34.125 25.4437C30.6042 25.4437 27.75 22.6735 27.75 19.2562C27.75 16.8573 29.1566 14.7771 31.2131 13.7505C30.6437 13.0338 30.3 12.131 30.3 11.2125Z" stroke="black" stroke-opacity="0.2" stroke-width="2" stroke-linecap="round" stroke-linejoin="round"/>
<path d="M34.125 21.4219V32.25M30.3 11.2125C30.3 9.16214 32.0125 7.5 34.125 7.5C36.2375 7.5 37.95 9.16214 37.95 11.2125C37.95 12.131 37.6063 13.0338 37.0369 13.7505C39.0934 14.7771 40.5 16.8573 40.5 19.2562C40.5 22.6735 37.6458 25.4437 34.125 25.4437C30.6042 25.4437 27.75 22.6735 27.75 19.2562C27.75 16.8573 29.1566 14.7771 31.2131 13.7505C30.6437 13.0338 30.3 12.131 30.3 11.2125Z" stroke="black" stroke-opacity="0.2" stroke-width="2" stroke-linecap="round" stroke-linejoin="round"/>
<path d="M42 37.5H6" stroke="#073A38" stroke-width="2" stroke-linecap="round"/>
<path d="M42 37.5H6" stroke="black" stroke-opacity="0.2" stroke-width="2" stroke-linecap="round"/>
<path d="M42 37.5H6" stroke="black" stroke-opacity="0.2" stroke-width="2" stroke-linecap="round"/>
<path d="M42 42.75H6" stroke="#073A38" stroke-width="2" stroke-linecap="round"/>
<path d="M42 42.75H6" stroke="black" stroke-opacity="0.2" stroke-width="2" stroke-linecap="round"/>
<path d="M42 42.75H6" stroke="black" stroke-opacity="0.2" stroke-width="2" stroke-linecap="round"/>
<path d="M8.625 32.25V28.5M15.375 32.25V28.5M21.75 32.25V28.5" stroke="#073A38" stroke-width="2" stroke-linecap="round"/>
<path d="M8.625 32.25V28.5M15.375 32.25V28.5M21.75 32.25V28.5" stroke="black" stroke-opacity="0.2" stroke-width="2" stroke-linecap="round"/>
<path d="M8.625 32.25V28.5M15.375 32.25V28.5M21.75 32.25V28.5" stroke="black" stroke-opacity="0.2" stroke-width="2" stroke-linecap="round"/>
</svg>
