<svg width="276" height="40" viewBox="0 0 276 40" fill="none" xmlns="http://www.w3.org/2000/svg">
<g opacity="0.988636">
<mask id="path-1-inside-1_504_265" fill="white">
<path d="M17.6351 39.1171C15.0479 39.1171 12.6737 38.6545 10.5123 37.7292C8.38363 36.771 6.53332 35.4492 4.96138 33.7639C3.38949 32.0455 2.16139 30.0298 1.2772 27.7167C0.425741 25.4036 0 22.8591 0 20.0834C0 17.3076 0.425741 14.7632 1.2772 12.45C2.16139 10.1369 3.38949 8.12116 4.96138 6.40281C6.56608 4.68449 8.43274 3.36271 10.5614 2.43746C12.7228 1.47915 15.0807 1 17.6351 1C20.1567 1 22.4 1.4461 24.3649 2.33832C26.3625 3.23054 28.0327 4.37056 29.3754 5.75846C30.7509 7.14634 31.7333 8.58379 32.3228 10.0708L29.3754 11.4587C28.393 9.17858 26.8865 7.37765 24.8561 6.05586C22.8585 4.70102 20.4514 4.02362 17.6351 4.02362C14.8515 4.02362 12.3626 4.70102 10.1684 6.05586C7.97426 7.41071 6.25497 9.29425 5.01053 11.7065C3.79882 14.0857 3.19298 16.878 3.19298 20.0834C3.19298 23.2556 3.79882 26.0479 5.01053 28.4602C6.25497 30.8725 7.95788 32.7395 10.1193 34.0613C12.3134 35.3831 14.8187 36.044 17.6351 36.044C20.1567 36.044 22.4164 35.4822 24.414 34.3587C26.4444 33.2021 28.0327 31.649 29.1789 29.6994C30.3579 27.7167 30.9473 25.4531 30.9473 22.9087V21.1738L32.3719 22.7104H17.6351V19.8355H34.1403V22.6113C34.1403 24.9244 33.7146 27.0888 32.8631 29.1046C32.0444 31.0873 30.8982 32.8386 29.4245 34.3587C27.9509 35.8457 26.1988 37.0188 24.1684 37.8779C22.1707 38.7041 19.993 39.1171 17.6351 39.1171ZM44.6735 39.1171C43.0361 39.1171 41.5788 38.8031 40.3016 38.1754C39.0244 37.5475 38.0092 36.6718 37.256 35.5483C36.5028 34.4248 36.1262 33.136 36.1262 31.6821C36.1262 30.3933 36.4044 29.1872 36.9612 28.0637C37.518 26.9402 38.4186 25.9819 39.663 25.1888C40.9075 24.3626 42.5285 23.7843 44.5261 23.4539L55.0876 21.6695V24.4453L45.3121 26.081C43.0852 26.4445 41.5133 27.1219 40.5963 28.1132C39.6794 29.1046 39.2209 30.2611 39.2209 31.5829C39.2209 33.0038 39.7449 34.1604 40.7928 35.0526C41.8735 35.9448 43.2326 36.3909 44.87 36.3909C46.7694 36.3909 48.4232 35.9614 49.8314 35.1022C51.2396 34.21 52.3367 33.0534 53.1226 31.6325C53.9086 30.1786 54.3016 28.5924 54.3016 26.874V20.3312C54.3016 18.5798 53.6794 17.1589 52.4349 16.0684C51.1905 14.9779 49.5694 14.4327 47.5718 14.4327C45.9343 14.4327 44.4607 14.8458 43.1507 15.6719C41.8408 16.498 40.842 17.572 40.1542 18.8938L37.5016 17.4563C37.9928 16.3989 38.746 15.4241 39.7612 14.5318C40.7764 13.6396 41.9554 12.9292 43.2981 12.4004C44.6408 11.8717 46.0653 11.6074 47.5718 11.6074C49.4712 11.6074 51.1413 11.9874 52.5823 12.7474C54.056 13.4744 55.2021 14.4988 56.0209 15.8206C56.8396 17.1093 57.2489 18.6129 57.2489 20.3312V39.2025H54.3016V33.0204L54.6454 33.2682C54.2197 34.3256 53.5156 35.3004 52.5332 36.1926C51.5507 37.0518 50.3881 37.7622 49.0454 38.324C47.7355 38.8527 46.2782 39.1171 44.6735 39.1171ZM61.1868 39.2026V12.2022H64.1342V17.1093L63.5938 16.6632C64.1506 15.1762 65.1003 14.0031 66.443 13.144C67.8184 12.2848 69.4394 11.8552 71.3061 11.8552H72.9763V14.8292H70.9623C68.8336 14.8292 67.1634 15.5232 65.9517 16.9111C64.7401 18.2659 64.1342 20.0999 64.1342 22.413V39.2026H61.1868ZM87.9449 39.1171C85.5215 39.1171 83.3274 38.5223 81.3625 37.3327C79.4303 36.1101 77.9075 34.4578 76.7941 32.376C75.6806 30.2942 75.1239 27.948 75.1239 25.3375C75.1239 22.7269 75.6806 20.3808 76.7941 18.2989C77.9075 16.2171 79.4303 14.5814 81.3625 13.3918C83.3274 12.2022 85.5215 11.6074 87.9449 11.6074C90.3356 11.6074 92.4642 12.1857 94.3309 13.3422C96.1975 14.4657 97.6057 15.9858 98.5554 17.9024L98.0642 18.8442V1H101.012V39.2025H98.0642V31.8308L98.5554 32.5247C97.6385 34.5735 96.2303 36.1927 94.3309 37.3823C92.4642 38.5389 90.3356 39.1171 87.9449 39.1171ZM88.0433 36.1431C89.9428 36.1431 91.6293 35.6805 93.103 34.7552C94.6094 33.7969 95.8048 32.5082 96.6889 30.889C97.5732 29.2367 98.0153 27.3863 98.0153 25.3375C98.0153 23.2887 97.5732 21.4547 96.6889 19.8355C95.8048 18.2164 94.6094 16.9441 93.103 16.0188C91.6293 15.0606 89.9428 14.5814 88.0433 14.5814C86.1767 14.5814 84.5065 15.0606 83.0328 16.0188C81.5591 16.9441 80.3966 18.2164 79.5451 19.8355C78.6936 21.4547 78.2679 23.2887 78.2679 25.3375C78.2679 27.3863 78.6936 29.2367 79.5451 30.889C80.3966 32.5082 81.5591 33.7969 83.0328 34.7552C84.5065 35.6805 86.1767 36.1431 88.0433 36.1431ZM117.993 39.1171C115.537 39.1171 113.327 38.5223 111.362 37.3327C109.397 36.1101 107.841 34.4578 106.695 32.376C105.549 30.2611 104.976 27.8984 104.976 25.2879C104.976 22.6774 105.533 20.3477 106.646 18.2989C107.76 16.2171 109.266 14.5814 111.165 13.3918C113.065 12.2022 115.193 11.6074 117.551 11.6074C119.353 11.6074 120.974 11.9378 122.414 12.5987C123.888 13.2596 125.149 14.1848 126.197 15.3745C127.278 16.531 128.096 17.8693 128.653 19.3894C129.243 20.8764 129.537 22.4461 129.537 24.0983C129.537 24.4287 129.521 24.7757 129.488 25.1392C129.456 25.5027 129.406 25.8827 129.341 26.2793H106.695V23.553H127.671L126.344 24.594C126.541 22.6774 126.263 20.9591 125.509 19.439C124.756 17.8859 123.675 16.6632 122.267 15.771C120.892 14.8458 119.32 14.3831 117.551 14.3831C115.783 14.3831 114.162 14.8623 112.688 15.8206C111.215 16.7458 110.052 18.0346 109.2 19.6868C108.349 21.306 107.956 23.1896 108.022 25.3375C107.956 27.4854 108.365 29.3854 109.25 31.0377C110.134 32.6899 111.345 33.9952 112.885 34.9535C114.424 35.8788 116.127 36.3414 117.993 36.3414C119.893 36.3414 121.547 35.8953 122.955 35.0031C124.363 34.0778 125.509 32.8552 126.393 31.3351L128.899 32.6734C128.309 33.8961 127.474 35.0031 126.393 35.9944C125.313 36.9527 124.052 37.7127 122.611 38.2745C121.203 38.8363 119.664 39.1171 117.993 39.1171ZM133.365 39.2061L133.387 12.2022H136.334V17.5059L135.598 17.3076C136.187 15.5562 137.235 14.1684 138.741 13.144C140.281 12.1196 142.065 11.6074 144.096 11.6074C145.897 11.6074 147.534 12.0204 149.008 12.8466C150.482 13.6727 151.661 14.8292 152.545 16.3162C153.429 17.7702 153.828 19.5121 153.838 21.3956L153.927 39.2026H150.98L150.89 22.2382C150.881 20.6521 150.613 19.2242 149.99 18.1007C149.368 16.9441 148.5 16.0684 147.387 15.4736C146.306 14.8458 145.062 14.5318 143.654 14.5318C142.18 14.5318 140.886 14.8788 139.773 15.5727C138.66 16.2667 137.808 17.225 137.219 18.4476C136.629 19.6703 136.334 21.0747 136.334 22.6609L136.312 39.2061L133.365 39.2061ZM170.795 39.1171C168.339 39.1171 166.128 38.5223 164.163 37.3327C162.198 36.1101 160.643 34.4578 159.496 32.376C158.35 30.2611 157.777 27.8984 157.777 25.2879C157.777 22.6774 158.334 20.3477 159.447 18.2989C160.561 16.2171 162.067 14.5814 163.967 13.3918C165.866 12.2022 167.995 11.6074 170.353 11.6074C172.154 11.6074 173.775 11.9378 175.216 12.5987C176.689 13.2596 177.95 14.1848 178.998 15.3745C180.079 16.531 180.898 17.8693 181.454 19.3894C182.044 20.8764 182.339 22.4461 182.339 24.0983C182.339 24.4287 182.322 24.7757 182.289 25.1392C182.257 25.5027 182.208 25.8827 182.142 26.2793H159.496V23.553H180.472L179.146 24.594C179.342 22.6774 179.064 20.9591 178.31 19.439C177.557 17.8859 176.477 16.6632 175.068 15.771C173.693 14.8458 172.121 14.3831 170.353 14.3831C168.584 14.3831 166.963 14.8623 165.489 15.8206C164.016 16.7458 162.853 18.0346 162.002 19.6868C161.15 21.306 160.757 23.1896 160.823 25.3375C160.757 27.4854 161.167 29.3854 162.051 31.0377C162.935 32.6899 164.147 33.9952 165.686 34.9535C167.225 35.8788 168.928 36.3414 170.795 36.3414C172.694 36.3414 174.348 35.8953 175.756 35.0031C177.164 34.0778 178.31 32.8552 179.195 31.3351L181.7 32.6734C181.11 33.8961 180.275 35.0031 179.195 35.9944C178.114 36.9527 176.853 37.7127 175.412 38.2745C174.004 38.8363 172.465 39.1171 170.795 39.1171ZM186.157 39.2026V12.2022H189.105V17.1093L188.564 16.6632C189.121 15.1762 190.071 14.0031 191.414 13.144C192.789 12.2848 194.41 11.8552 196.277 11.8552H197.947V14.8292H195.933C193.804 14.8292 192.134 15.5232 190.922 16.9111C189.711 18.2659 189.105 20.7801 189.105 23.0932V39.2026H186.157ZM219.52 39.1171C216.933 39.1171 214.559 38.6545 212.397 37.7292C210.269 36.771 208.418 35.4492 206.846 33.7639C205.274 32.0455 204.046 30.0298 203.162 27.7167C202.311 25.4036 201.885 22.8591 201.885 20.0834C201.885 17.3076 202.311 14.7632 203.162 12.45C204.046 10.1369 205.274 8.12116 206.846 6.40281C208.451 4.68449 210.318 3.36271 212.446 2.43746C214.608 1.47915 216.966 1 219.52 1C222.042 1 224.285 1.4461 226.25 2.33832C228.248 3.23054 229.918 4.37056 231.26 5.75846C232.636 7.14634 233.618 8.58379 234.208 10.0708L231.26 11.4587C230.278 9.17858 228.772 7.37765 226.741 6.05586C224.743 4.70102 222.336 4.02362 219.52 4.02362C216.736 4.02362 214.248 4.70102 212.053 6.05586C209.859 7.41071 208.14 9.29425 206.896 11.7065C205.684 14.0857 205.078 16.878 205.078 20.0834C205.078 23.2556 205.684 26.0479 206.896 28.4602C208.14 30.8725 209.843 32.7395 212.004 34.0613C214.198 35.3831 216.704 36.044 219.52 36.044C222.042 36.044 224.301 35.4822 226.299 34.3587C228.329 33.2021 229.918 31.649 231.064 29.6994C232.243 27.7167 232.832 25.4531 232.832 22.9087V21.1738L234.257 22.7104H219.52V19.8355H236.025V22.6113C236.025 24.9244 235.6 27.0888 234.748 29.1046C233.929 31.0873 232.783 32.8386 231.31 34.3587C229.836 35.8457 228.084 37.0188 226.053 37.8779C224.056 38.7041 221.878 39.1171 219.52 39.1171Z"/>
</mask>
<path d="M17.6351 39.1171C15.0479 39.1171 12.6737 38.6545 10.5123 37.7292C8.38363 36.771 6.53332 35.4492 4.96138 33.7639C3.38949 32.0455 2.16139 30.0298 1.2772 27.7167C0.425741 25.4036 0 22.8591 0 20.0834C0 17.3076 0.425741 14.7632 1.2772 12.45C2.16139 10.1369 3.38949 8.12116 4.96138 6.40281C6.56608 4.68449 8.43274 3.36271 10.5614 2.43746C12.7228 1.47915 15.0807 1 17.6351 1C20.1567 1 22.4 1.4461 24.3649 2.33832C26.3625 3.23054 28.0327 4.37056 29.3754 5.75846C30.7509 7.14634 31.7333 8.58379 32.3228 10.0708L29.3754 11.4587C28.393 9.17858 26.8865 7.37765 24.8561 6.05586C22.8585 4.70102 20.4514 4.02362 17.6351 4.02362C14.8515 4.02362 12.3626 4.70102 10.1684 6.05586C7.97426 7.41071 6.25497 9.29425 5.01053 11.7065C3.79882 14.0857 3.19298 16.878 3.19298 20.0834C3.19298 23.2556 3.79882 26.0479 5.01053 28.4602C6.25497 30.8725 7.95788 32.7395 10.1193 34.0613C12.3134 35.3831 14.8187 36.044 17.6351 36.044C20.1567 36.044 22.4164 35.4822 24.414 34.3587C26.4444 33.2021 28.0327 31.649 29.1789 29.6994C30.3579 27.7167 30.9473 25.4531 30.9473 22.9087V21.1738L32.3719 22.7104H17.6351V19.8355H34.1403V22.6113C34.1403 24.9244 33.7146 27.0888 32.8631 29.1046C32.0444 31.0873 30.8982 32.8386 29.4245 34.3587C27.9509 35.8457 26.1988 37.0188 24.1684 37.8779C22.1707 38.7041 19.993 39.1171 17.6351 39.1171ZM44.6735 39.1171C43.0361 39.1171 41.5788 38.8031 40.3016 38.1754C39.0244 37.5475 38.0092 36.6718 37.256 35.5483C36.5028 34.4248 36.1262 33.136 36.1262 31.6821C36.1262 30.3933 36.4044 29.1872 36.9612 28.0637C37.518 26.9402 38.4186 25.9819 39.663 25.1888C40.9075 24.3626 42.5285 23.7843 44.5261 23.4539L55.0876 21.6695V24.4453L45.3121 26.081C43.0852 26.4445 41.5133 27.1219 40.5963 28.1132C39.6794 29.1046 39.2209 30.2611 39.2209 31.5829C39.2209 33.0038 39.7449 34.1604 40.7928 35.0526C41.8735 35.9448 43.2326 36.3909 44.87 36.3909C46.7694 36.3909 48.4232 35.9614 49.8314 35.1022C51.2396 34.21 52.3367 33.0534 53.1226 31.6325C53.9086 30.1786 54.3016 28.5924 54.3016 26.874V20.3312C54.3016 18.5798 53.6794 17.1589 52.4349 16.0684C51.1905 14.9779 49.5694 14.4327 47.5718 14.4327C45.9343 14.4327 44.4607 14.8458 43.1507 15.6719C41.8408 16.498 40.842 17.572 40.1542 18.8938L37.5016 17.4563C37.9928 16.3989 38.746 15.4241 39.7612 14.5318C40.7764 13.6396 41.9554 12.9292 43.2981 12.4004C44.6408 11.8717 46.0653 11.6074 47.5718 11.6074C49.4712 11.6074 51.1413 11.9874 52.5823 12.7474C54.056 13.4744 55.2021 14.4988 56.0209 15.8206C56.8396 17.1093 57.2489 18.6129 57.2489 20.3312V39.2025H54.3016V33.0204L54.6454 33.2682C54.2197 34.3256 53.5156 35.3004 52.5332 36.1926C51.5507 37.0518 50.3881 37.7622 49.0454 38.324C47.7355 38.8527 46.2782 39.1171 44.6735 39.1171ZM61.1868 39.2026V12.2022H64.1342V17.1093L63.5938 16.6632C64.1506 15.1762 65.1003 14.0031 66.443 13.144C67.8184 12.2848 69.4394 11.8552 71.3061 11.8552H72.9763V14.8292H70.9623C68.8336 14.8292 67.1634 15.5232 65.9517 16.9111C64.7401 18.2659 64.1342 20.0999 64.1342 22.413V39.2026H61.1868ZM87.9449 39.1171C85.5215 39.1171 83.3274 38.5223 81.3625 37.3327C79.4303 36.1101 77.9075 34.4578 76.7941 32.376C75.6806 30.2942 75.1239 27.948 75.1239 25.3375C75.1239 22.7269 75.6806 20.3808 76.7941 18.2989C77.9075 16.2171 79.4303 14.5814 81.3625 13.3918C83.3274 12.2022 85.5215 11.6074 87.9449 11.6074C90.3356 11.6074 92.4642 12.1857 94.3309 13.3422C96.1975 14.4657 97.6057 15.9858 98.5554 17.9024L98.0642 18.8442V1H101.012V39.2025H98.0642V31.8308L98.5554 32.5247C97.6385 34.5735 96.2303 36.1927 94.3309 37.3823C92.4642 38.5389 90.3356 39.1171 87.9449 39.1171ZM88.0433 36.1431C89.9428 36.1431 91.6293 35.6805 93.103 34.7552C94.6094 33.7969 95.8048 32.5082 96.6889 30.889C97.5732 29.2367 98.0153 27.3863 98.0153 25.3375C98.0153 23.2887 97.5732 21.4547 96.6889 19.8355C95.8048 18.2164 94.6094 16.9441 93.103 16.0188C91.6293 15.0606 89.9428 14.5814 88.0433 14.5814C86.1767 14.5814 84.5065 15.0606 83.0328 16.0188C81.5591 16.9441 80.3966 18.2164 79.5451 19.8355C78.6936 21.4547 78.2679 23.2887 78.2679 25.3375C78.2679 27.3863 78.6936 29.2367 79.5451 30.889C80.3966 32.5082 81.5591 33.7969 83.0328 34.7552C84.5065 35.6805 86.1767 36.1431 88.0433 36.1431ZM117.993 39.1171C115.537 39.1171 113.327 38.5223 111.362 37.3327C109.397 36.1101 107.841 34.4578 106.695 32.376C105.549 30.2611 104.976 27.8984 104.976 25.2879C104.976 22.6774 105.533 20.3477 106.646 18.2989C107.76 16.2171 109.266 14.5814 111.165 13.3918C113.065 12.2022 115.193 11.6074 117.551 11.6074C119.353 11.6074 120.974 11.9378 122.414 12.5987C123.888 13.2596 125.149 14.1848 126.197 15.3745C127.278 16.531 128.096 17.8693 128.653 19.3894C129.243 20.8764 129.537 22.4461 129.537 24.0983C129.537 24.4287 129.521 24.7757 129.488 25.1392C129.456 25.5027 129.406 25.8827 129.341 26.2793H106.695V23.553H127.671L126.344 24.594C126.541 22.6774 126.263 20.9591 125.509 19.439C124.756 17.8859 123.675 16.6632 122.267 15.771C120.892 14.8458 119.32 14.3831 117.551 14.3831C115.783 14.3831 114.162 14.8623 112.688 15.8206C111.215 16.7458 110.052 18.0346 109.2 19.6868C108.349 21.306 107.956 23.1896 108.022 25.3375C107.956 27.4854 108.365 29.3854 109.25 31.0377C110.134 32.6899 111.345 33.9952 112.885 34.9535C114.424 35.8788 116.127 36.3414 117.993 36.3414C119.893 36.3414 121.547 35.8953 122.955 35.0031C124.363 34.0778 125.509 32.8552 126.393 31.3351L128.899 32.6734C128.309 33.8961 127.474 35.0031 126.393 35.9944C125.313 36.9527 124.052 37.7127 122.611 38.2745C121.203 38.8363 119.664 39.1171 117.993 39.1171ZM133.365 39.2061L133.387 12.2022H136.334V17.5059L135.598 17.3076C136.187 15.5562 137.235 14.1684 138.741 13.144C140.281 12.1196 142.065 11.6074 144.096 11.6074C145.897 11.6074 147.534 12.0204 149.008 12.8466C150.482 13.6727 151.661 14.8292 152.545 16.3162C153.429 17.7702 153.828 19.5121 153.838 21.3956L153.927 39.2026H150.98L150.89 22.2382C150.881 20.6521 150.613 19.2242 149.99 18.1007C149.368 16.9441 148.5 16.0684 147.387 15.4736C146.306 14.8458 145.062 14.5318 143.654 14.5318C142.18 14.5318 140.886 14.8788 139.773 15.5727C138.66 16.2667 137.808 17.225 137.219 18.4476C136.629 19.6703 136.334 21.0747 136.334 22.6609L136.312 39.2061L133.365 39.2061ZM170.795 39.1171C168.339 39.1171 166.128 38.5223 164.163 37.3327C162.198 36.1101 160.643 34.4578 159.496 32.376C158.35 30.2611 157.777 27.8984 157.777 25.2879C157.777 22.6774 158.334 20.3477 159.447 18.2989C160.561 16.2171 162.067 14.5814 163.967 13.3918C165.866 12.2022 167.995 11.6074 170.353 11.6074C172.154 11.6074 173.775 11.9378 175.216 12.5987C176.689 13.2596 177.95 14.1848 178.998 15.3745C180.079 16.531 180.898 17.8693 181.454 19.3894C182.044 20.8764 182.339 22.4461 182.339 24.0983C182.339 24.4287 182.322 24.7757 182.289 25.1392C182.257 25.5027 182.208 25.8827 182.142 26.2793H159.496V23.553H180.472L179.146 24.594C179.342 22.6774 179.064 20.9591 178.31 19.439C177.557 17.8859 176.477 16.6632 175.068 15.771C173.693 14.8458 172.121 14.3831 170.353 14.3831C168.584 14.3831 166.963 14.8623 165.489 15.8206C164.016 16.7458 162.853 18.0346 162.002 19.6868C161.15 21.306 160.757 23.1896 160.823 25.3375C160.757 27.4854 161.167 29.3854 162.051 31.0377C162.935 32.6899 164.147 33.9952 165.686 34.9535C167.225 35.8788 168.928 36.3414 170.795 36.3414C172.694 36.3414 174.348 35.8953 175.756 35.0031C177.164 34.0778 178.31 32.8552 179.195 31.3351L181.7 32.6734C181.11 33.8961 180.275 35.0031 179.195 35.9944C178.114 36.9527 176.853 37.7127 175.412 38.2745C174.004 38.8363 172.465 39.1171 170.795 39.1171ZM186.157 39.2026V12.2022H189.105V17.1093L188.564 16.6632C189.121 15.1762 190.071 14.0031 191.414 13.144C192.789 12.2848 194.41 11.8552 196.277 11.8552H197.947V14.8292H195.933C193.804 14.8292 192.134 15.5232 190.922 16.9111C189.711 18.2659 189.105 20.7801 189.105 23.0932V39.2026H186.157ZM219.52 39.1171C216.933 39.1171 214.559 38.6545 212.397 37.7292C210.269 36.771 208.418 35.4492 206.846 33.7639C205.274 32.0455 204.046 30.0298 203.162 27.7167C202.311 25.4036 201.885 22.8591 201.885 20.0834C201.885 17.3076 202.311 14.7632 203.162 12.45C204.046 10.1369 205.274 8.12116 206.846 6.40281C208.451 4.68449 210.318 3.36271 212.446 2.43746C214.608 1.47915 216.966 1 219.52 1C222.042 1 224.285 1.4461 226.25 2.33832C228.248 3.23054 229.918 4.37056 231.26 5.75846C232.636 7.14634 233.618 8.58379 234.208 10.0708L231.26 11.4587C230.278 9.17858 228.772 7.37765 226.741 6.05586C224.743 4.70102 222.336 4.02362 219.52 4.02362C216.736 4.02362 214.248 4.70102 212.053 6.05586C209.859 7.41071 208.14 9.29425 206.896 11.7065C205.684 14.0857 205.078 16.878 205.078 20.0834C205.078 23.2556 205.684 26.0479 206.896 28.4602C208.14 30.8725 209.843 32.7395 212.004 34.0613C214.198 35.3831 216.704 36.044 219.52 36.044C222.042 36.044 224.301 35.4822 226.299 34.3587C228.329 33.2021 229.918 31.649 231.064 29.6994C232.243 27.7167 232.832 25.4531 232.832 22.9087V21.1738L234.257 22.7104H219.52V19.8355H236.025V22.6113C236.025 24.9244 235.6 27.0888 234.748 29.1046C233.929 31.0873 232.783 32.8386 231.31 34.3587C229.836 35.8457 228.084 37.0188 226.053 37.8779C224.056 38.7041 221.878 39.1171 219.52 39.1171Z" fill="#EDFBF2" stroke="#EDFBF2" stroke-width="7.55906" mask="url(#path-1-inside-1_504_265)"/>
</g>
<path d="M256.937 38.0993C265.841 38.3551 273.27 31.458 273.53 22.6942C273.79 13.9305 266.782 6.61868 257.878 6.3629C248.973 6.10713 241.544 13.0042 241.284 21.768C241.024 30.5318 248.032 37.8436 256.937 38.0993Z" stroke="#EDFBF2" stroke-width="3"/>
<path d="M273.679 3.37107C271.887 10.268 268.11 16.509 262.801 21.3445C257.493 26.18 250.879 29.4042 243.754 30.6299" stroke="#EDFBF2" stroke-width="3"/>
<path d="M243.309 14.3898C246.341 12.4628 249.942 11.5922 253.536 11.9174C257.13 12.2425 260.509 13.7446 263.133 16.1833C265.757 18.6221 267.474 21.8565 268.01 25.3693C268.546 28.8821 267.869 32.4703 266.088 35.5598" stroke="#EDFBF2" stroke-width="3"/>
<path d="M241.552 19.5574C244.215 18.5938 247.089 18.3385 249.884 18.8172C252.679 19.2959 255.296 20.4917 257.471 22.2838C259.647 24.076 261.303 26.4012 262.274 29.0248C263.245 31.6483 263.496 34.4775 263.001 37.2269" stroke="#EDFBF2" stroke-width="3"/>
<path d="M241.307 24.2341C245.129 24.3206 248.796 25.7407 251.653 28.2411C254.511 30.7415 256.372 34.1596 256.907 37.8857" stroke="#EDFBF2" stroke-width="3"/>
<path opacity="0.988636" d="M254.241 6.66497C262.27 5.12023 265.607 6.46888 273.68 3.37109C271.748 10.094 274.322 10.9635 273.53 22.6942" stroke="#EDFBF2" stroke-width="3"/>
</svg>
