<svg width="36" height="36" viewBox="0 0 36 36" fill="none" xmlns="http://www.w3.org/2000/svg">
<path d="M8.4375 22.3594V33.1875M4.725 12.15C4.725 10.0996 6.38714 8.4375 8.4375 8.4375C10.4879 8.4375 12.15 10.0996 12.15 12.15C12.15 13.0685 11.8164 13.9713 11.2638 14.688C13.2597 15.7146 14.625 17.7948 14.625 20.1937C14.625 23.611 11.8548 26.3812 8.4375 26.3812C5.02024 26.3812 2.25 23.611 2.25 20.1937C2.25 17.7948 3.61527 15.7146 5.61122 14.688C5.05859 13.9713 4.725 13.0685 4.725 12.15Z" stroke="#EDFBF2" stroke-width="3" stroke-linecap="round" stroke-linejoin="round"/>
<path d="M22.125 17.6875C22.125 18.1707 22.5168 18.5625 23 18.5625H26.5C26.9832 18.5625 27.375 18.1707 27.375 17.6875V13.3125L31.75 13.3125C32.2332 13.3125 32.625 12.9207 32.625 12.4375V8.9375C32.625 8.45425 32.2332 8.0625 31.75 8.0625H27.375L27.375 3.6875C27.375 3.20425 26.9832 2.8125 26.5 2.8125H23C22.5168 2.8125 22.125 3.20425 22.125 3.6875V8.0625H17.75C17.2668 8.0625 16.875 8.45425 16.875 8.9375V12.4375C16.875 12.9207 17.2668 13.3125 17.75 13.3125H22.125V17.6875Z" stroke="#EDFBF2" stroke-width="3" stroke-linecap="round" stroke-linejoin="round"/>
</svg>
