<svg width="16" height="16" viewBox="0 0 16 16" fill="none" xmlns="http://www.w3.org/2000/svg">
<g clip-path="url(#clip0_467_1644)">
<path d="M13 1H3C1.89543 1 1 1.89543 1 3V13C1 14.1046 1.89543 15 3 15H13C14.1046 15 15 14.1046 15 13V3C15 1.89543 14.1046 1 13 1Z" stroke="#073A38" stroke-miterlimit="10"/>
<path d="M13 1H3C1.89543 1 1 1.89543 1 3V13C1 14.1046 1.89543 15 3 15H13C14.1046 15 15 14.1046 15 13V3C15 1.89543 14.1046 1 13 1Z" stroke="black" stroke-opacity="0.2" stroke-miterlimit="10"/>
<path d="M13 1H3C1.89543 1 1 1.89543 1 3V13C1 14.1046 1.89543 15 3 15H13C14.1046 15 15 14.1046 15 13V3C15 1.89543 14.1046 1 13 1Z" stroke="black" stroke-opacity="0.2" stroke-miterlimit="10"/>
<path d="M1 13.0933L5.45333 8.64001L9.27333 12.4533L11.82 9.90668L15 13.0933" stroke="#073A38" stroke-miterlimit="10"/>
<path d="M1 13.0933L5.45333 8.64001L9.27333 12.4533L11.82 9.90668L15 13.0933" stroke="black" stroke-opacity="0.2" stroke-miterlimit="10"/>
<path d="M1 13.0933L5.45333 8.64001L9.27333 12.4533L11.82 9.90668L15 13.0933" stroke="black" stroke-opacity="0.2" stroke-miterlimit="10"/>
<path d="M9.27333 6.72666C9.97658 6.72666 10.5467 6.15657 10.5467 5.45333C10.5467 4.75008 9.97658 4.17999 9.27333 4.17999C8.57009 4.17999 8 4.75008 8 5.45333C8 6.15657 8.57009 6.72666 9.27333 6.72666Z" stroke="#073A38" stroke-miterlimit="10"/>
<path d="M9.27333 6.72666C9.97658 6.72666 10.5467 6.15657 10.5467 5.45333C10.5467 4.75008 9.97658 4.17999 9.27333 4.17999C8.57009 4.17999 8 4.75008 8 5.45333C8 6.15657 8.57009 6.72666 9.27333 6.72666Z" stroke="black" stroke-opacity="0.2" stroke-miterlimit="10"/>
<path d="M9.27333 6.72666C9.97658 6.72666 10.5467 6.15657 10.5467 5.45333C10.5467 4.75008 9.97658 4.17999 9.27333 4.17999C8.57009 4.17999 8 4.75008 8 5.45333C8 6.15657 8.57009 6.72666 9.27333 6.72666Z" stroke="black" stroke-opacity="0.2" stroke-miterlimit="10"/>
</g>
<defs>
<clipPath id="clip0_467_1644">
<rect width="16" height="16" fill="white"/>
</clipPath>
</defs>
</svg>
