<svg width="17" height="16" viewBox="0 0 17 16" fill="none" xmlns="http://www.w3.org/2000/svg">
<path d="M13.8337 14C13.8337 12.1591 11.4458 10.6667 8.50033 10.6667C5.55481 10.6667 3.16699 12.1591 3.16699 14M8.50033 8.66667C6.65938 8.66667 5.16699 7.17428 5.16699 5.33333C5.16699 3.49238 6.65938 2 8.50033 2C10.3413 2 11.8337 3.49238 11.8337 5.33333C11.8337 7.17428 10.3413 8.66667 8.50033 8.66667Z" stroke="#073A38" stroke-width="2" stroke-linecap="round" stroke-linejoin="round"/>
<path d="M13.8337 14C13.8337 12.1591 11.4458 10.6667 8.50033 10.6667C5.55481 10.6667 3.16699 12.1591 3.16699 14M8.50033 8.66667C6.65938 8.66667 5.16699 7.17428 5.16699 5.33333C5.16699 3.49238 6.65938 2 8.50033 2C10.3413 2 11.8337 3.49238 11.8337 5.33333C11.8337 7.17428 10.3413 8.66667 8.50033 8.66667Z" stroke="black" stroke-opacity="0.2" stroke-width="2" stroke-linecap="round" stroke-linejoin="round"/>
<path d="M13.8337 14C13.8337 12.1591 11.4458 10.6667 8.50033 10.6667C5.55481 10.6667 3.16699 12.1591 3.16699 14M8.50033 8.66667C6.65938 8.66667 5.16699 7.17428 5.16699 5.33333C5.16699 3.49238 6.65938 2 8.50033 2C10.3413 2 11.8337 3.49238 11.8337 5.33333C11.8337 7.17428 10.3413 8.66667 8.50033 8.66667Z" stroke="black" stroke-opacity="0.2" stroke-width="2" stroke-linecap="round" stroke-linejoin="round"/>
</svg>
