<svg width="48" height="48" viewBox="0 0 48 48" fill="none" xmlns="http://www.w3.org/2000/svg">
<path d="M33 26.7656V43.5M27.15 10.9875C27.15 7.81877 29.7691 5.25 33 5.25C36.2309 5.25 38.85 7.81877 38.85 10.9875C38.85 12.4071 38.3243 13.8022 37.4535 14.9098C40.5987 16.4965 42.75 19.7112 42.75 23.4188C42.75 28.7 38.3848 32.9812 33 32.9812C27.6152 32.9812 23.25 28.7 23.25 23.4188C23.25 19.7112 25.4013 16.4965 28.5465 14.9098C27.6757 13.8022 27.15 12.4071 27.15 10.9875Z" stroke="#53BC65" stroke-width="3" stroke-linecap="round" stroke-linejoin="round"/>
<path d="M12 31.839V43.5M12 36.1702C8.27208 36.1702 5.25 33.1869 5.25 29.5067C5.25 26.9232 9.8226 19.8556 12 18.75C14.1774 19.8556 18.75 26.9232 18.75 29.5067C18.75 33.1869 15.7279 36.1702 12 36.1702Z" stroke="#53BC65" stroke-width="3" stroke-linecap="round" stroke-linejoin="round"/>
</svg>
