<svg width="11" height="14" viewBox="0 0 11 14" fill="none" xmlns="http://www.w3.org/2000/svg">
<path d="M0.833008 5.61523C0.833008 8.84978 3.66266 11.5246 4.91513 12.5501C5.09438 12.6969 5.18508 12.7712 5.31881 12.8088C5.42295 12.8381 5.57621 12.8381 5.68034 12.8088C5.81432 12.7711 5.90439 12.6976 6.08431 12.5502C7.33679 11.5247 10.1663 8.85008 10.1663 5.61553C10.1663 4.39145 9.67465 3.21737 8.79948 2.35181C7.92431 1.48626 6.73741 1 5.49973 1C4.26205 1 3.07501 1.48634 2.19984 2.35189C1.32467 3.21744 0.833008 4.39116 0.833008 5.61523Z" stroke="#073A38" stroke-linecap="round" stroke-linejoin="round"/>
<path d="M0.833008 5.61523C0.833008 8.84978 3.66266 11.5246 4.91513 12.5501C5.09438 12.6969 5.18508 12.7712 5.31881 12.8088C5.42295 12.8381 5.57621 12.8381 5.68034 12.8088C5.81432 12.7711 5.90439 12.6976 6.08431 12.5502C7.33679 11.5247 10.1663 8.85008 10.1663 5.61553C10.1663 4.39145 9.67465 3.21737 8.79948 2.35181C7.92431 1.48626 6.73741 1 5.49973 1C4.26205 1 3.07501 1.48634 2.19984 2.35189C1.32467 3.21744 0.833008 4.39116 0.833008 5.61523Z" stroke="black" stroke-opacity="0.2" stroke-linecap="round" stroke-linejoin="round"/>
<path d="M0.833008 5.61523C0.833008 8.84978 3.66266 11.5246 4.91513 12.5501C5.09438 12.6969 5.18508 12.7712 5.31881 12.8088C5.42295 12.8381 5.57621 12.8381 5.68034 12.8088C5.81432 12.7711 5.90439 12.6976 6.08431 12.5502C7.33679 11.5247 10.1663 8.85008 10.1663 5.61553C10.1663 4.39145 9.67465 3.21737 8.79948 2.35181C7.92431 1.48626 6.73741 1 5.49973 1C4.26205 1 3.07501 1.48634 2.19984 2.35189C1.32467 3.21744 0.833008 4.39116 0.833008 5.61523Z" stroke="black" stroke-opacity="0.2" stroke-linecap="round" stroke-linejoin="round"/>
<path d="M4.16634 5C4.16634 5.73638 4.76329 6.33333 5.49967 6.33333C6.23605 6.33333 6.83301 5.73638 6.83301 5C6.83301 4.26362 6.23605 3.66667 5.49967 3.66667C4.76329 3.66667 4.16634 4.26362 4.16634 5Z" stroke="#073A38" stroke-linecap="round" stroke-linejoin="round"/>
<path d="M4.16634 5C4.16634 5.73638 4.76329 6.33333 5.49967 6.33333C6.23605 6.33333 6.83301 5.73638 6.83301 5C6.83301 4.26362 6.23605 3.66667 5.49967 3.66667C4.76329 3.66667 4.16634 4.26362 4.16634 5Z" stroke="black" stroke-opacity="0.2" stroke-linecap="round" stroke-linejoin="round"/>
<path d="M4.16634 5C4.16634 5.73638 4.76329 6.33333 5.49967 6.33333C6.23605 6.33333 6.83301 5.73638 6.83301 5C6.83301 4.26362 6.23605 3.66667 5.49967 3.66667C4.76329 3.66667 4.16634 4.26362 4.16634 5Z" stroke="black" stroke-opacity="0.2" stroke-linecap="round" stroke-linejoin="round"/>
</svg>
